<mxfile host="app.diagrams.net" modified="2023-02-15T11:13:11.995Z" agent="5.0 (Macintosh; Intel Mac OS X 10_15_7) AppleWebKit/537.36 (KHTML, like Gecko) Chrome/110.0.0.0 Safari/537.36" etag="mTe6f4NTUzpAhltRmacT" version="20.8.20" type="github">
  <diagram name="Page-1" id="N5b7pEtT-ewYYMIJ2sSQ">
    <mxGraphModel dx="3115" dy="974" grid="1" gridSize="10" guides="1" tooltips="1" connect="1" arrows="1" fold="1" page="1" pageScale="1" pageWidth="827" pageHeight="1169" math="0" shadow="0">
      <root>
        <mxCell id="0" />
        <mxCell id="1" parent="0" />
        <mxCell id="ToKSnlBWmdoKMt5lx9_--152" value="" style="rounded=0;whiteSpace=wrap;html=1;strokeColor=default;strokeWidth=1;fontSize=12;" vertex="1" parent="1">
          <mxGeometry x="-830" width="830" height="1170" as="geometry" />
        </mxCell>
        <mxCell id="ToKSnlBWmdoKMt5lx9_--4" value="" style="rounded=0;whiteSpace=wrap;html=1;fontSize=10;fillColor=default;" vertex="1" parent="1">
          <mxGeometry x="-658.53" y="510" width="250" height="650" as="geometry" />
        </mxCell>
        <mxCell id="ToKSnlBWmdoKMt5lx9_--5" value="" style="rounded=0;html=1;jettySize=auto;orthogonalLoop=1;fontSize=11;endArrow=block;endFill=0;endSize=8;strokeWidth=1;shadow=0;labelBackgroundColor=none;edgeStyle=orthogonalEdgeStyle;" edge="1" parent="1" source="ToKSnlBWmdoKMt5lx9_--6" target="ToKSnlBWmdoKMt5lx9_--9">
          <mxGeometry relative="1" as="geometry" />
        </mxCell>
        <mxCell id="ToKSnlBWmdoKMt5lx9_--6" value="User opens&lt;br&gt;webapp in browser" style="rounded=1;whiteSpace=wrap;html=1;fontSize=12;glass=0;strokeWidth=1;shadow=0;" vertex="1" parent="1">
          <mxGeometry x="-648.53" y="550" width="120" height="40" as="geometry" />
        </mxCell>
        <mxCell id="ToKSnlBWmdoKMt5lx9_--7" value="Yes" style="rounded=0;html=1;jettySize=auto;orthogonalLoop=1;fontSize=11;endArrow=block;endFill=0;endSize=8;strokeWidth=1;shadow=0;labelBackgroundColor=none;edgeStyle=orthogonalEdgeStyle;entryX=0.5;entryY=0;entryDx=0;entryDy=0;" edge="1" parent="1" source="ToKSnlBWmdoKMt5lx9_--9" target="ToKSnlBWmdoKMt5lx9_--18">
          <mxGeometry x="-0.5" y="10" relative="1" as="geometry">
            <mxPoint as="offset" />
            <mxPoint x="-608.53" y="750" as="targetPoint" />
          </mxGeometry>
        </mxCell>
        <mxCell id="ToKSnlBWmdoKMt5lx9_--8" value="No" style="edgeStyle=orthogonalEdgeStyle;rounded=0;html=1;jettySize=auto;orthogonalLoop=1;fontSize=11;endArrow=block;endFill=0;endSize=8;strokeWidth=1;shadow=0;labelBackgroundColor=none;" edge="1" parent="1" source="ToKSnlBWmdoKMt5lx9_--9" target="ToKSnlBWmdoKMt5lx9_--10">
          <mxGeometry x="-0.6" y="10" relative="1" as="geometry">
            <mxPoint as="offset" />
          </mxGeometry>
        </mxCell>
        <mxCell id="ToKSnlBWmdoKMt5lx9_--9" value="Does&lt;br&gt;browser&lt;br&gt;support&lt;br&gt;&lt;div style=&quot;&quot;&gt;&lt;span style=&quot;background-color: initial;&quot;&gt;PN?&lt;/span&gt;&lt;/div&gt;" style="rhombus;whiteSpace=wrap;html=1;shadow=0;fontFamily=Helvetica;fontSize=12;align=center;strokeWidth=1;spacing=6;spacingTop=-4;" vertex="1" parent="1">
          <mxGeometry x="-638.53" y="630" width="100" height="80" as="geometry" />
        </mxCell>
        <mxCell id="ToKSnlBWmdoKMt5lx9_--10" value="Do nothing" style="rounded=1;whiteSpace=wrap;html=1;fontSize=12;glass=0;strokeWidth=1;shadow=0;" vertex="1" parent="1">
          <mxGeometry x="-498.53" y="650" width="80" height="40" as="geometry" />
        </mxCell>
        <mxCell id="ToKSnlBWmdoKMt5lx9_--11" value="Yes" style="rounded=0;html=1;jettySize=auto;orthogonalLoop=1;fontSize=11;endArrow=block;endFill=0;endSize=8;strokeWidth=1;shadow=0;labelBackgroundColor=none;edgeStyle=orthogonalEdgeStyle;" edge="1" parent="1" source="ToKSnlBWmdoKMt5lx9_--13" target="ToKSnlBWmdoKMt5lx9_--14">
          <mxGeometry x="-0.5" y="10" relative="1" as="geometry">
            <mxPoint as="offset" />
          </mxGeometry>
        </mxCell>
        <mxCell id="ToKSnlBWmdoKMt5lx9_--12" value="No" style="edgeStyle=orthogonalEdgeStyle;rounded=0;html=1;jettySize=auto;orthogonalLoop=1;fontSize=11;endArrow=block;endFill=0;endSize=8;strokeWidth=1;shadow=0;labelBackgroundColor=none;" edge="1" parent="1" source="ToKSnlBWmdoKMt5lx9_--13">
          <mxGeometry x="-0.6" y="10" relative="1" as="geometry">
            <mxPoint as="offset" />
            <mxPoint x="-498.53" y="950" as="targetPoint" />
          </mxGeometry>
        </mxCell>
        <mxCell id="ToKSnlBWmdoKMt5lx9_--13" value="User&lt;br&gt;allows&lt;br&gt;PN?" style="rhombus;whiteSpace=wrap;html=1;shadow=0;fontFamily=Helvetica;fontSize=12;align=center;strokeWidth=1;spacing=6;spacingTop=-4;" vertex="1" parent="1">
          <mxGeometry x="-638.53" y="910" width="100" height="80" as="geometry" />
        </mxCell>
        <mxCell id="ToKSnlBWmdoKMt5lx9_--14" value="Subscribe browser with Push Service" style="rounded=1;whiteSpace=wrap;html=1;fontSize=12;glass=0;strokeWidth=1;shadow=0;" vertex="1" parent="1">
          <mxGeometry x="-648.53" y="1030" width="120" height="40" as="geometry" />
        </mxCell>
        <mxCell id="ToKSnlBWmdoKMt5lx9_--15" value="Do nothing" style="rounded=1;whiteSpace=wrap;html=1;fontSize=12;glass=0;strokeWidth=1;shadow=0;" vertex="1" parent="1">
          <mxGeometry x="-498.53" y="930" width="80" height="40" as="geometry" />
        </mxCell>
        <mxCell id="ToKSnlBWmdoKMt5lx9_--16" value="Display PN opt-in" style="rounded=1;whiteSpace=wrap;html=1;fontSize=12;glass=0;strokeWidth=1;shadow=0;" vertex="1" parent="1">
          <mxGeometry x="-648.53" y="830" width="120" height="40" as="geometry" />
        </mxCell>
        <mxCell id="ToKSnlBWmdoKMt5lx9_--17" value="" style="rounded=0;html=1;jettySize=auto;orthogonalLoop=1;fontSize=11;endArrow=block;endFill=0;endSize=8;strokeWidth=1;shadow=0;labelBackgroundColor=none;edgeStyle=orthogonalEdgeStyle;exitX=0.5;exitY=1;exitDx=0;exitDy=0;entryX=0.5;entryY=0;entryDx=0;entryDy=0;" edge="1" parent="1" source="ToKSnlBWmdoKMt5lx9_--16" target="ToKSnlBWmdoKMt5lx9_--13">
          <mxGeometry relative="1" as="geometry">
            <mxPoint x="-508.53" y="910" as="sourcePoint" />
            <mxPoint x="-508.53" y="960" as="targetPoint" />
          </mxGeometry>
        </mxCell>
        <mxCell id="ToKSnlBWmdoKMt5lx9_--18" value="Service worker registration" style="rounded=1;whiteSpace=wrap;html=1;fontSize=12;glass=0;strokeWidth=1;shadow=0;" vertex="1" parent="1">
          <mxGeometry x="-648.53" y="750" width="120" height="40" as="geometry" />
        </mxCell>
        <mxCell id="ToKSnlBWmdoKMt5lx9_--19" value="" style="rounded=0;html=1;jettySize=auto;orthogonalLoop=1;fontSize=11;endArrow=block;endFill=0;endSize=8;strokeWidth=1;shadow=0;labelBackgroundColor=none;edgeStyle=orthogonalEdgeStyle;exitX=0.5;exitY=1;exitDx=0;exitDy=0;entryX=0.5;entryY=0;entryDx=0;entryDy=0;" edge="1" parent="1" source="ToKSnlBWmdoKMt5lx9_--18" target="ToKSnlBWmdoKMt5lx9_--16">
          <mxGeometry relative="1" as="geometry">
            <mxPoint x="-499.0999999999999" y="790" as="sourcePoint" />
            <mxPoint x="-499.0999999999999" y="830" as="targetPoint" />
          </mxGeometry>
        </mxCell>
        <mxCell id="ToKSnlBWmdoKMt5lx9_--20" value="Save push subscription to DB" style="rounded=1;whiteSpace=wrap;html=1;fontSize=12;glass=0;strokeWidth=1;shadow=0;" vertex="1" parent="1">
          <mxGeometry x="-648.53" y="1110" width="120" height="40" as="geometry" />
        </mxCell>
        <mxCell id="ToKSnlBWmdoKMt5lx9_--21" value="" style="rounded=0;html=1;jettySize=auto;orthogonalLoop=1;fontSize=11;endArrow=block;endFill=0;endSize=8;strokeWidth=1;shadow=0;labelBackgroundColor=none;edgeStyle=orthogonalEdgeStyle;exitX=0.5;exitY=1;exitDx=0;exitDy=0;entryX=0.5;entryY=0;entryDx=0;entryDy=0;" edge="1" parent="1" source="ToKSnlBWmdoKMt5lx9_--14" target="ToKSnlBWmdoKMt5lx9_--20">
          <mxGeometry relative="1" as="geometry">
            <mxPoint x="-498.53" y="1080" as="sourcePoint" />
            <mxPoint x="-498.53" y="1120" as="targetPoint" />
          </mxGeometry>
        </mxCell>
        <mxCell id="ToKSnlBWmdoKMt5lx9_--24" value="Subscription flow (uses user facing web page)" style="text;html=1;strokeColor=none;fillColor=none;align=center;verticalAlign=middle;whiteSpace=wrap;rounded=0;fontSize=10;" vertex="1" parent="1">
          <mxGeometry x="-658.53" y="510" width="220" height="20" as="geometry" />
        </mxCell>
        <mxCell id="ToKSnlBWmdoKMt5lx9_--25" value="" style="rounded=0;whiteSpace=wrap;html=1;fontSize=10;fillColor=default;" vertex="1" parent="1">
          <mxGeometry x="-378.53000000000003" y="510" width="250" height="250" as="geometry" />
        </mxCell>
        <mxCell id="ToKSnlBWmdoKMt5lx9_--26" value="" style="rounded=0;html=1;jettySize=auto;orthogonalLoop=1;fontSize=11;endArrow=block;endFill=0;endSize=8;strokeWidth=1;shadow=0;labelBackgroundColor=none;edgeStyle=orthogonalEdgeStyle;" edge="1" parent="1" source="ToKSnlBWmdoKMt5lx9_--27">
          <mxGeometry relative="1" as="geometry">
            <mxPoint x="-258.53000000000003" y="630" as="targetPoint" />
          </mxGeometry>
        </mxCell>
        <mxCell id="ToKSnlBWmdoKMt5lx9_--27" value="Admin clicks &quot;send notification&quot; button" style="rounded=1;whiteSpace=wrap;html=1;fontSize=12;glass=0;strokeWidth=1;shadow=0;" vertex="1" parent="1">
          <mxGeometry x="-318.53000000000003" y="550" width="120" height="40" as="geometry" />
        </mxCell>
        <mxCell id="ToKSnlBWmdoKMt5lx9_--28" value="Get all push subscripts from DB" style="rounded=1;whiteSpace=wrap;html=1;fontSize=12;glass=0;strokeWidth=1;shadow=0;" vertex="1" parent="1">
          <mxGeometry x="-318.53000000000003" y="630" width="120" height="40" as="geometry" />
        </mxCell>
        <mxCell id="ToKSnlBWmdoKMt5lx9_--29" value="Trigger all push notifications using a web push lib" style="rounded=1;whiteSpace=wrap;html=1;fontSize=12;glass=0;strokeWidth=1;shadow=0;" vertex="1" parent="1">
          <mxGeometry x="-318.53000000000003" y="710" width="120" height="40" as="geometry" />
        </mxCell>
        <mxCell id="ToKSnlBWmdoKMt5lx9_--30" value="Trigger notification flow (uses admin facing web page)" style="text;html=1;strokeColor=none;fillColor=none;align=center;verticalAlign=middle;whiteSpace=wrap;rounded=0;fontSize=10;" vertex="1" parent="1">
          <mxGeometry x="-378.53000000000003" y="510" width="250" height="20" as="geometry" />
        </mxCell>
        <mxCell id="ToKSnlBWmdoKMt5lx9_--32" value="" style="rounded=0;html=1;jettySize=auto;orthogonalLoop=1;fontSize=11;endArrow=block;endFill=0;endSize=8;strokeWidth=1;shadow=0;labelBackgroundColor=none;edgeStyle=orthogonalEdgeStyle;exitX=0.5;exitY=1;exitDx=0;exitDy=0;entryX=0.5;entryY=0;entryDx=0;entryDy=0;" edge="1" parent="1" source="ToKSnlBWmdoKMt5lx9_--28" target="ToKSnlBWmdoKMt5lx9_--29">
          <mxGeometry relative="1" as="geometry">
            <mxPoint x="-178.53000000000003" y="670" as="sourcePoint" />
            <mxPoint x="-178.53000000000003" y="710" as="targetPoint" />
          </mxGeometry>
        </mxCell>
        <mxCell id="ToKSnlBWmdoKMt5lx9_--33" value="" style="rounded=0;whiteSpace=wrap;html=1;fontSize=10;fillColor=default;" vertex="1" parent="1">
          <mxGeometry x="-378.53000000000003" y="790" width="250" height="370" as="geometry" />
        </mxCell>
        <mxCell id="ToKSnlBWmdoKMt5lx9_--34" value="" style="rounded=0;html=1;jettySize=auto;orthogonalLoop=1;fontSize=11;endArrow=block;endFill=0;endSize=8;strokeWidth=1;shadow=0;labelBackgroundColor=none;edgeStyle=orthogonalEdgeStyle;entryX=0.5;entryY=0;entryDx=0;entryDy=0;" edge="1" parent="1" source="ToKSnlBWmdoKMt5lx9_--35" target="ToKSnlBWmdoKMt5lx9_--40">
          <mxGeometry relative="1" as="geometry">
            <mxPoint x="-258.53000000000003" y="990" as="targetPoint" />
          </mxGeometry>
        </mxCell>
        <mxCell id="ToKSnlBWmdoKMt5lx9_--35" value="Browser service worker dispatches push event" style="rounded=1;whiteSpace=wrap;html=1;fontSize=12;glass=0;strokeWidth=1;shadow=0;" vertex="1" parent="1">
          <mxGeometry x="-318.53000000000003" y="910" width="120" height="40" as="geometry" />
        </mxCell>
        <mxCell id="ToKSnlBWmdoKMt5lx9_--36" value="Show push notification" style="rounded=1;whiteSpace=wrap;html=1;fontSize=12;glass=0;strokeWidth=1;shadow=0;" vertex="1" parent="1">
          <mxGeometry x="-318.53000000000003" y="1110" width="120" height="40" as="geometry" />
        </mxCell>
        <mxCell id="ToKSnlBWmdoKMt5lx9_--37" value="Display notification flow (uses service worker of user&amp;nbsp; facing browser)" style="text;html=1;strokeColor=none;fillColor=none;align=center;verticalAlign=middle;whiteSpace=wrap;rounded=0;fontSize=10;" vertex="1" parent="1">
          <mxGeometry x="-378.53000000000003" y="790" width="250" height="30" as="geometry" />
        </mxCell>
        <mxCell id="ToKSnlBWmdoKMt5lx9_--38" value="" style="rounded=0;html=1;jettySize=auto;orthogonalLoop=1;fontSize=11;endArrow=block;endFill=0;endSize=8;strokeWidth=1;shadow=0;labelBackgroundColor=none;edgeStyle=orthogonalEdgeStyle;exitX=0.5;exitY=1;exitDx=0;exitDy=0;entryX=0.5;entryY=0;entryDx=0;entryDy=0;" edge="1" parent="1" source="ToKSnlBWmdoKMt5lx9_--40" target="ToKSnlBWmdoKMt5lx9_--36">
          <mxGeometry relative="1" as="geometry">
            <mxPoint x="-258.53000000000003" y="1030" as="sourcePoint" />
            <mxPoint x="-178.53000000000003" y="1070" as="targetPoint" />
          </mxGeometry>
        </mxCell>
        <mxCell id="ToKSnlBWmdoKMt5lx9_--39" value="Yes" style="edgeLabel;html=1;align=center;verticalAlign=middle;resizable=0;points=[];fontSize=11;" vertex="1" connectable="0" parent="ToKSnlBWmdoKMt5lx9_--38">
          <mxGeometry x="-0.2738" y="1" relative="1" as="geometry">
            <mxPoint x="9" y="-5" as="offset" />
          </mxGeometry>
        </mxCell>
        <mxCell id="ToKSnlBWmdoKMt5lx9_--40" value="Push event received by event listener?" style="rhombus;whiteSpace=wrap;html=1;shadow=0;fontFamily=Helvetica;fontSize=11;align=center;strokeWidth=1;spacing=6;spacingTop=-4;" vertex="1" parent="1">
          <mxGeometry x="-308.53000000000003" y="990" width="100" height="80" as="geometry" />
        </mxCell>
        <mxCell id="ToKSnlBWmdoKMt5lx9_--41" value="No" style="edgeStyle=orthogonalEdgeStyle;rounded=0;html=1;jettySize=auto;orthogonalLoop=1;fontSize=11;endArrow=block;endFill=0;endSize=8;strokeWidth=1;shadow=0;labelBackgroundColor=none;exitX=1;exitY=0.5;exitDx=0;exitDy=0;entryX=0.5;entryY=0;entryDx=0;entryDy=0;" edge="1" parent="1" source="ToKSnlBWmdoKMt5lx9_--40" target="ToKSnlBWmdoKMt5lx9_--40">
          <mxGeometry x="-0.6" y="10" relative="1" as="geometry">
            <mxPoint as="offset" />
            <mxPoint x="-208.53000000000003" y="1040" as="sourcePoint" />
            <mxPoint x="-168.53000000000003" y="1030" as="targetPoint" />
            <Array as="points">
              <mxPoint x="-188.53000000000003" y="1030" />
              <mxPoint x="-188.53000000000003" y="990" />
            </Array>
          </mxGeometry>
        </mxCell>
        <mxCell id="ToKSnlBWmdoKMt5lx9_--58" value="Push service wakes up service worker on push event" style="rounded=1;whiteSpace=wrap;html=1;fontSize=12;glass=0;strokeWidth=1;shadow=0;" vertex="1" parent="1">
          <mxGeometry x="-318.53000000000003" y="830" width="120" height="40" as="geometry" />
        </mxCell>
        <mxCell id="ToKSnlBWmdoKMt5lx9_--59" value="" style="rounded=0;html=1;jettySize=auto;orthogonalLoop=1;fontSize=11;endArrow=block;endFill=0;endSize=8;strokeWidth=1;shadow=0;labelBackgroundColor=none;edgeStyle=orthogonalEdgeStyle;entryX=0.5;entryY=0;entryDx=0;entryDy=0;exitX=0.5;exitY=1;exitDx=0;exitDy=0;" edge="1" parent="1" source="ToKSnlBWmdoKMt5lx9_--58" target="ToKSnlBWmdoKMt5lx9_--35">
          <mxGeometry relative="1" as="geometry">
            <mxPoint x="-178.53000000000003" y="910" as="targetPoint" />
            <mxPoint x="-178.53000000000003" y="870" as="sourcePoint" />
          </mxGeometry>
        </mxCell>
        <mxCell id="ToKSnlBWmdoKMt5lx9_--92" value="" style="edgeStyle=orthogonalEdgeStyle;rounded=0;orthogonalLoop=1;jettySize=auto;html=1;" edge="1" parent="1" source="ToKSnlBWmdoKMt5lx9_--86" target="ToKSnlBWmdoKMt5lx9_--89">
          <mxGeometry relative="1" as="geometry">
            <mxPoint x="-532" y="81.01" as="targetPoint" />
          </mxGeometry>
        </mxCell>
        <mxCell id="ToKSnlBWmdoKMt5lx9_--146" value="&lt;font style=&quot;font-size: 9px;&quot;&gt;API calls&lt;/font&gt;" style="edgeLabel;html=1;align=center;verticalAlign=middle;resizable=0;points=[];fontSize=12;" vertex="1" connectable="0" parent="ToKSnlBWmdoKMt5lx9_--92">
          <mxGeometry x="-0.1517" y="-2" relative="1" as="geometry">
            <mxPoint as="offset" />
          </mxGeometry>
        </mxCell>
        <mxCell id="ToKSnlBWmdoKMt5lx9_--86" value="" style="sketch=0;pointerEvents=1;shadow=0;dashed=0;html=1;strokeColor=none;fillColor=#434445;aspect=fixed;labelPosition=center;verticalLabelPosition=bottom;verticalAlign=top;align=center;outlineConnect=0;shape=mxgraph.vvd.web_browser;strokeWidth=0;" vertex="1" parent="1">
          <mxGeometry x="-680.2" y="137.76" width="58.8" height="41.75" as="geometry" />
        </mxCell>
        <mxCell id="ToKSnlBWmdoKMt5lx9_--103" value="" style="edgeStyle=orthogonalEdgeStyle;rounded=0;orthogonalLoop=1;jettySize=auto;html=1;" edge="1" parent="1" source="ToKSnlBWmdoKMt5lx9_--89" target="ToKSnlBWmdoKMt5lx9_--100">
          <mxGeometry relative="1" as="geometry">
            <mxPoint x="-542.53" y="162.75" as="sourcePoint" />
            <Array as="points">
              <mxPoint x="-478" y="163" />
              <mxPoint x="-478" y="123" />
            </Array>
          </mxGeometry>
        </mxCell>
        <mxCell id="ToKSnlBWmdoKMt5lx9_--104" style="edgeStyle=orthogonalEdgeStyle;rounded=0;orthogonalLoop=1;jettySize=auto;html=1;entryX=0;entryY=0.5;entryDx=0;entryDy=0;" edge="1" parent="1" source="ToKSnlBWmdoKMt5lx9_--89" target="ToKSnlBWmdoKMt5lx9_--101">
          <mxGeometry relative="1" as="geometry">
            <mxPoint x="-542.53" y="162.75" as="sourcePoint" />
            <Array as="points">
              <mxPoint x="-478" y="163" />
              <mxPoint x="-478" y="202" />
            </Array>
          </mxGeometry>
        </mxCell>
        <mxCell id="ToKSnlBWmdoKMt5lx9_--89" value="RESTful API&lt;br&gt;endpoints" style="sketch=0;outlineConnect=0;fontColor=#232F3E;gradientColor=none;fillColor=#B0084D;strokeColor=none;dashed=0;verticalLabelPosition=bottom;verticalAlign=top;align=center;html=1;fontSize=12;fontStyle=0;aspect=fixed;pointerEvents=1;shape=mxgraph.aws4.endpoint;" vertex="1" parent="1">
          <mxGeometry x="-560" y="134.64" width="48" height="48" as="geometry" />
        </mxCell>
        <mxCell id="ToKSnlBWmdoKMt5lx9_--100" value="Subscription service" style="rounded=1;whiteSpace=wrap;html=1;absoluteArcSize=1;arcSize=14;strokeWidth=1;" vertex="1" parent="1">
          <mxGeometry x="-443.53" y="101.76" width="100" height="40" as="geometry" />
        </mxCell>
        <mxCell id="ToKSnlBWmdoKMt5lx9_--132" value="" style="edgeStyle=orthogonalEdgeStyle;rounded=0;orthogonalLoop=1;jettySize=auto;html=1;fontSize=12;" edge="1" parent="1" source="ToKSnlBWmdoKMt5lx9_--101" target="ToKSnlBWmdoKMt5lx9_--128">
          <mxGeometry relative="1" as="geometry" />
        </mxCell>
        <mxCell id="ToKSnlBWmdoKMt5lx9_--133" value="&lt;font style=&quot;font-size: 9px;&quot;&gt;Send&lt;br&gt;notification&lt;/font&gt;" style="edgeLabel;html=1;align=center;verticalAlign=middle;resizable=0;points=[];fontSize=12;" vertex="1" connectable="0" parent="ToKSnlBWmdoKMt5lx9_--132">
          <mxGeometry x="-0.3837" y="1" relative="1" as="geometry">
            <mxPoint x="5" y="19" as="offset" />
          </mxGeometry>
        </mxCell>
        <mxCell id="ToKSnlBWmdoKMt5lx9_--101" value="Notification service" style="rounded=1;whiteSpace=wrap;html=1;absoluteArcSize=1;arcSize=14;strokeWidth=1;" vertex="1" parent="1">
          <mxGeometry x="-443.53" y="181.76" width="100" height="40" as="geometry" />
        </mxCell>
        <mxCell id="ToKSnlBWmdoKMt5lx9_--141" style="edgeStyle=orthogonalEdgeStyle;rounded=0;orthogonalLoop=1;jettySize=auto;html=1;fontSize=12;" edge="1" parent="1" source="ToKSnlBWmdoKMt5lx9_--105" target="ToKSnlBWmdoKMt5lx9_--86">
          <mxGeometry relative="1" as="geometry">
            <mxPoint x="-672" y="162.76" as="targetPoint" />
            <Array as="points">
              <mxPoint x="-795" y="163" />
            </Array>
          </mxGeometry>
        </mxCell>
        <mxCell id="ToKSnlBWmdoKMt5lx9_--105" value="" style="shape=actor;whiteSpace=wrap;html=1;fontSize=9;" vertex="1" parent="1">
          <mxGeometry x="-805" y="107.76" width="20" height="30" as="geometry" />
        </mxCell>
        <mxCell id="ToKSnlBWmdoKMt5lx9_--106" value="" style="shape=actor;whiteSpace=wrap;html=1;fontSize=9;" vertex="1" parent="1">
          <mxGeometry x="-805" y="147.76" width="20" height="30" as="geometry" />
        </mxCell>
        <mxCell id="ToKSnlBWmdoKMt5lx9_--109" value="" style="endArrow=classic;startArrow=classic;html=1;rounded=0;fontSize=9;entryX=0.5;entryY=1;entryDx=0;entryDy=0;exitX=0.5;exitY=0;exitDx=0;exitDy=0;" edge="1" parent="1" source="ToKSnlBWmdoKMt5lx9_--101" target="ToKSnlBWmdoKMt5lx9_--100">
          <mxGeometry width="50" height="50" relative="1" as="geometry">
            <mxPoint x="-393.53" y="241.76" as="sourcePoint" />
            <mxPoint x="-343.53" y="191.76" as="targetPoint" />
          </mxGeometry>
        </mxCell>
        <mxCell id="ToKSnlBWmdoKMt5lx9_--110" value="" style="endArrow=classic;startArrow=classic;html=1;rounded=0;fontSize=9;entryX=0.5;entryY=1;entryDx=0;entryDy=0;exitX=0.5;exitY=0;exitDx=0;exitDy=0;" edge="1" parent="1" source="ToKSnlBWmdoKMt5lx9_--111" target="ToKSnlBWmdoKMt5lx9_--101">
          <mxGeometry width="50" height="50" relative="1" as="geometry">
            <mxPoint x="-393.53" y="261.76" as="sourcePoint" />
            <mxPoint x="-351.53" y="241.76" as="targetPoint" />
          </mxGeometry>
        </mxCell>
        <mxCell id="ToKSnlBWmdoKMt5lx9_--111" value="Data access layer" style="rounded=1;whiteSpace=wrap;html=1;absoluteArcSize=1;arcSize=14;strokeWidth=1;" vertex="1" parent="1">
          <mxGeometry x="-443.53" y="271.76" width="100" height="40" as="geometry" />
        </mxCell>
        <mxCell id="ToKSnlBWmdoKMt5lx9_--112" value="" style="strokeWidth=1;html=1;shape=mxgraph.flowchart.database;whiteSpace=wrap;fontSize=9;" vertex="1" parent="1">
          <mxGeometry x="-413.53" y="351.76" width="40" height="20" as="geometry" />
        </mxCell>
        <mxCell id="ToKSnlBWmdoKMt5lx9_--113" value="" style="endArrow=classic;startArrow=classic;html=1;rounded=0;fontSize=9;entryX=0.5;entryY=1;entryDx=0;entryDy=0;exitX=0.5;exitY=0;exitDx=0;exitDy=0;exitPerimeter=0;" edge="1" parent="1" source="ToKSnlBWmdoKMt5lx9_--112" target="ToKSnlBWmdoKMt5lx9_--111">
          <mxGeometry width="50" height="50" relative="1" as="geometry">
            <mxPoint x="-393.53" y="351.76" as="sourcePoint" />
            <mxPoint x="-393.95000000000005" y="311.76" as="targetPoint" />
          </mxGeometry>
        </mxCell>
        <mxCell id="ToKSnlBWmdoKMt5lx9_--114" value="SQL database&lt;br&gt;(Postgres)" style="text;html=1;align=center;verticalAlign=middle;resizable=0;points=[];autosize=1;strokeColor=none;fillColor=none;fontSize=9;" vertex="1" parent="1">
          <mxGeometry x="-433.53" y="361.76" width="80" height="40" as="geometry" />
        </mxCell>
        <mxCell id="ToKSnlBWmdoKMt5lx9_--115" value="&lt;span style=&quot;font-weight: normal;&quot;&gt;Browser service worker&lt;/span&gt;" style="label;whiteSpace=wrap;html=1;align=center;verticalAlign=bottom;spacingLeft=0;spacingBottom=4;imageAlign=center;imageVerticalAlign=top;image=img/clipart/Gear_128x128.png;fontSize=9;" vertex="1" parent="1">
          <mxGeometry x="-682" y="220" width="60" height="90" as="geometry" />
        </mxCell>
        <mxCell id="ToKSnlBWmdoKMt5lx9_--140" style="edgeStyle=orthogonalEdgeStyle;rounded=0;orthogonalLoop=1;jettySize=auto;html=1;fontSize=12;" edge="1" parent="1" source="ToKSnlBWmdoKMt5lx9_--116" target="ToKSnlBWmdoKMt5lx9_--86">
          <mxGeometry relative="1" as="geometry">
            <mxPoint x="-672" y="162.76" as="targetPoint" />
            <Array as="points">
              <mxPoint x="-708" y="259" />
              <mxPoint x="-708" y="163" />
            </Array>
          </mxGeometry>
        </mxCell>
        <mxCell id="ToKSnlBWmdoKMt5lx9_--116" value="" style="shape=actor;whiteSpace=wrap;html=1;fontSize=9;" vertex="1" parent="1">
          <mxGeometry x="-805" y="236.76" width="20" height="30" as="geometry" />
        </mxCell>
        <mxCell id="ToKSnlBWmdoKMt5lx9_--120" value="" style="endArrow=classic;startArrow=classic;html=1;rounded=0;fontSize=9;exitX=0.5;exitY=0;exitDx=0;exitDy=0;" edge="1" parent="1" source="ToKSnlBWmdoKMt5lx9_--115" target="ToKSnlBWmdoKMt5lx9_--86">
          <mxGeometry width="50" height="50" relative="1" as="geometry">
            <mxPoint x="-752.6" y="273.76" as="sourcePoint" />
            <mxPoint x="-702.6" y="223.76" as="targetPoint" />
          </mxGeometry>
        </mxCell>
        <mxCell id="ToKSnlBWmdoKMt5lx9_--121" value="" style="shape=curlyBracket;whiteSpace=wrap;html=1;rounded=1;flipH=1;labelPosition=right;verticalLabelPosition=middle;align=left;verticalAlign=middle;strokeColor=default;strokeWidth=1;fontSize=12;rotation=-90;" vertex="1" parent="1">
          <mxGeometry x="-657.18" y="36.38" width="20" height="81.02" as="geometry" />
        </mxCell>
        <mxCell id="ToKSnlBWmdoKMt5lx9_--124" value="Frontend" style="text;html=1;strokeColor=none;fillColor=none;align=center;verticalAlign=middle;whiteSpace=wrap;rounded=0;fontSize=12;" vertex="1" parent="1">
          <mxGeometry x="-677.18" y="41.019999999999996" width="60" height="30" as="geometry" />
        </mxCell>
        <mxCell id="ToKSnlBWmdoKMt5lx9_--125" value="" style="shape=curlyBracket;whiteSpace=wrap;html=1;rounded=1;flipH=1;labelPosition=right;verticalLabelPosition=middle;align=left;verticalAlign=middle;strokeColor=default;strokeWidth=1;fontSize=12;rotation=-90;" vertex="1" parent="1">
          <mxGeometry x="-373.12" y="-128.1" width="20" height="410" as="geometry" />
        </mxCell>
        <mxCell id="ToKSnlBWmdoKMt5lx9_--126" value="Backend" style="text;html=1;strokeColor=none;fillColor=none;align=center;verticalAlign=middle;whiteSpace=wrap;rounded=0;fontSize=12;" vertex="1" parent="1">
          <mxGeometry x="-393.12" y="41.019999999999996" width="60" height="30" as="geometry" />
        </mxCell>
        <mxCell id="ToKSnlBWmdoKMt5lx9_--128" value="RabbitMQ message broker&lt;br&gt;server" style="rounded=1;whiteSpace=wrap;html=1;absoluteArcSize=1;arcSize=14;strokeWidth=1;" vertex="1" parent="1">
          <mxGeometry x="-259.91999999999996" y="141.76" width="100" height="40" as="geometry" />
        </mxCell>
        <mxCell id="ToKSnlBWmdoKMt5lx9_--144" value="" style="edgeStyle=orthogonalEdgeStyle;rounded=0;orthogonalLoop=1;jettySize=auto;html=1;fontSize=12;" edge="1" parent="1" source="ToKSnlBWmdoKMt5lx9_--129" target="ToKSnlBWmdoKMt5lx9_--135">
          <mxGeometry relative="1" as="geometry" />
        </mxCell>
        <mxCell id="ToKSnlBWmdoKMt5lx9_--129" value="Celery async worker" style="rounded=1;whiteSpace=wrap;html=1;absoluteArcSize=1;arcSize=14;strokeWidth=1;" vertex="1" parent="1">
          <mxGeometry x="-259.91999999999996" y="221.76" width="100" height="40" as="geometry" />
        </mxCell>
        <mxCell id="ToKSnlBWmdoKMt5lx9_--134" value="" style="endArrow=classic;startArrow=classic;html=1;rounded=0;fontSize=9;entryX=0.5;entryY=1;entryDx=0;entryDy=0;exitX=0.5;exitY=0;exitDx=0;exitDy=0;" edge="1" parent="1" source="ToKSnlBWmdoKMt5lx9_--129" target="ToKSnlBWmdoKMt5lx9_--128">
          <mxGeometry width="50" height="50" relative="1" as="geometry">
            <mxPoint x="-479.91999999999996" y="251.76" as="sourcePoint" />
            <mxPoint x="-429.91999999999996" y="201.76" as="targetPoint" />
          </mxGeometry>
        </mxCell>
        <mxCell id="ToKSnlBWmdoKMt5lx9_--135" value="&lt;font style=&quot;font-size: 12px;&quot;&gt;Browser&lt;br&gt;Push Service&lt;br&gt;&lt;/font&gt;" style="strokeWidth=1;html=1;shape=mxgraph.flowchart.multi-document;whiteSpace=wrap;strokeColor=default;fontSize=9;" vertex="1" parent="1">
          <mxGeometry x="-100" y="172.76" width="88" height="60" as="geometry" />
        </mxCell>
        <mxCell id="ToKSnlBWmdoKMt5lx9_--142" value="&lt;font style=&quot;font-size: 9px;&quot;&gt;Subscription api&lt;br&gt;request&lt;/font&gt;" style="edgeLabel;html=1;align=center;verticalAlign=middle;resizable=0;points=[];fontSize=12;" vertex="1" connectable="0" parent="1">
          <mxGeometry x="-720.0028571428574" y="142.7600000000001" as="geometry" />
        </mxCell>
        <mxCell id="ToKSnlBWmdoKMt5lx9_--143" value="&lt;font style=&quot;font-size: 9px;&quot;&gt;Send notification&lt;br&gt;api request&lt;/font&gt;" style="edgeLabel;html=1;align=center;verticalAlign=middle;resizable=0;points=[];fontSize=12;" vertex="1" connectable="0" parent="1">
          <mxGeometry x="-720.0028571428574" y="273.8000000000001" as="geometry" />
        </mxCell>
        <mxCell id="ToKSnlBWmdoKMt5lx9_--147" value="Subscriber" style="text;html=1;strokeColor=none;fillColor=none;align=center;verticalAlign=middle;whiteSpace=wrap;rounded=0;fontSize=12;" vertex="1" parent="1">
          <mxGeometry x="-825" y="172.76" width="60" height="30" as="geometry" />
        </mxCell>
        <mxCell id="ToKSnlBWmdoKMt5lx9_--148" value="Sender" style="text;html=1;strokeColor=none;fillColor=none;align=center;verticalAlign=middle;whiteSpace=wrap;rounded=0;fontSize=12;" vertex="1" parent="1">
          <mxGeometry x="-821.5" y="262.76" width="53" height="30" as="geometry" />
        </mxCell>
        <mxCell id="ToKSnlBWmdoKMt5lx9_--149" value="System Architecture Diagram" style="text;html=1;strokeColor=none;fillColor=none;align=center;verticalAlign=middle;whiteSpace=wrap;rounded=0;fontSize=12;fontStyle=1" vertex="1" parent="1">
          <mxGeometry x="-825" width="185" height="30" as="geometry" />
        </mxCell>
        <mxCell id="ToKSnlBWmdoKMt5lx9_--150" value="Subsystem-flow diagrams" style="text;html=1;strokeColor=none;fillColor=none;align=center;verticalAlign=middle;whiteSpace=wrap;rounded=0;fontSize=12;fontStyle=1" vertex="1" parent="1">
          <mxGeometry x="-827" y="470" width="177" height="30" as="geometry" />
        </mxCell>
        <mxCell id="ToKSnlBWmdoKMt5lx9_--151" value="" style="endArrow=none;html=1;rounded=0;fontSize=12;" edge="1" parent="1">
          <mxGeometry width="50" height="50" relative="1" as="geometry">
            <mxPoint x="-820" y="440" as="sourcePoint" />
            <mxPoint x="-10" y="440" as="targetPoint" />
          </mxGeometry>
        </mxCell>
        <mxCell id="ToKSnlBWmdoKMt5lx9_--153" value="" style="endArrow=classic;startArrow=classic;html=1;rounded=0;fontSize=12;entryX=0.5;entryY=0.88;entryDx=0;entryDy=0;entryPerimeter=0;exitX=0.5;exitY=1;exitDx=0;exitDy=0;edgeStyle=orthogonalEdgeStyle;" edge="1" parent="1" source="ToKSnlBWmdoKMt5lx9_--115" target="ToKSnlBWmdoKMt5lx9_--135">
          <mxGeometry width="50" height="50" relative="1" as="geometry">
            <mxPoint x="-480" y="470" as="sourcePoint" />
            <mxPoint x="-430" y="420" as="targetPoint" />
            <Array as="points">
              <mxPoint x="-652" y="410" />
              <mxPoint x="-56" y="410" />
            </Array>
          </mxGeometry>
        </mxCell>
      </root>
    </mxGraphModel>
  </diagram>
</mxfile>
